<svg width="57" height="56" viewBox="0 0 57 56" fill="none" xmlns="http://www.w3.org/2000/svg">
<rect x="0.5" width="56" height="56" rx="28" fill="#667085" fill-opacity="0.1"/>
<path fill-rule="evenodd" clip-rule="evenodd" d="M20.6528 20.4857C20.6528 16.0546 24.1661 12.4624 28.5 12.4624C32.8339 12.4624 36.3472 16.0546 36.3472 20.4857C36.3472 24.9168 32.8339 28.509 28.5 28.509C24.1661 28.509 20.6528 24.9168 20.6528 20.4857ZM16.6734 34.0683C18.145 32.5636 20.141 31.7183 22.2222 31.7183H34.7778C36.859 31.7183 38.855 32.5636 40.3266 34.0683C41.7982 35.573 42.625 37.6137 42.625 39.7416V42.9509C42.625 43.8372 41.9749 44.7313 41.0556 45.3579C40.1362 45.9846 36.7675 46.9589 34.0051 47.344C29.4505 47.979 26.7616 47.9061 22.2222 47.1655C19.7267 46.7583 16.7276 45.9415 15.9444 45.3579C15.0515 44.6925 14.375 43.8372 14.375 42.9509V39.7416C14.375 37.6137 15.2018 35.573 16.6734 34.0683Z" fill="#667085" fill-opacity="0.4"/>
</svg>
