<svg width="16" height="14" viewBox="0 0 16 14" fill="none" xmlns="http://www.w3.org/2000/svg">
<path fill-rule="evenodd" clip-rule="evenodd" d="M9.64115 0.662173C10.167 0.444275 10.7307 0.332123 11.2999 0.332123C11.8692 0.332123 12.4328 0.444275 12.9587 0.662173C13.4845 0.88003 13.9622 1.19933 14.3645 1.60182C14.767 2.00419 15.0866 2.48213 15.3044 3.00791C15.5223 3.53378 15.6345 4.09744 15.6345 4.66667C15.6345 5.23591 15.5223 5.79956 15.3044 6.32544C15.0865 6.85126 14.7672 7.32902 14.3647 7.73141L8.47132 13.6247C8.21097 13.8851 7.78886 13.8851 7.52851 13.6247L1.63518 7.73141C0.82236 6.91859 0.365723 5.81617 0.365723 4.66667C0.365723 3.51717 0.82236 2.41475 1.63518 1.60194C2.448 0.789116 3.55042 0.332479 4.69992 0.332479C5.84942 0.332479 6.95184 0.789116 7.76465 1.60194L7.99992 1.8372L8.23507 1.60205C8.63746 1.1995 9.11532 0.88005 9.64115 0.662173Z" fill="#6941C6"/>
</svg>
