<svg width="17" height="16" viewBox="0 0 17 16" fill="none" xmlns="http://www.w3.org/2000/svg">
<g id="star">
<path id="Icon (Stroke)" fill-rule="evenodd" clip-rule="evenodd" d="M8.4994 0.893311C8.84102 0.893311 9.15303 1.08725 9.30424 1.39358L10.9446 4.71669L14.6129 5.25287C14.9509 5.30227 15.2315 5.53923 15.3369 5.86415C15.4422 6.18907 15.354 6.54562 15.1093 6.78395L12.4557 9.3686L13.0819 13.0201C13.1397 13.3568 13.0012 13.6971 12.7248 13.8979C12.4484 14.0988 12.0819 14.1252 11.7795 13.9662L8.4994 12.2412L5.21926 13.9662C4.91686 14.1252 4.5504 14.0988 4.27398 13.8979C3.99755 13.6971 3.85911 13.3568 3.91687 13.0201L4.54313 9.3686L1.88949 6.78395C1.6448 6.54562 1.5566 6.18907 1.66195 5.86415C1.7673 5.53923 2.04795 5.30227 2.38593 5.25287L6.05424 4.71669L7.69456 1.39358C7.84577 1.08725 8.15778 0.893311 8.4994 0.893311Z" fill="#101828"/>
</g>
</svg>
