<svg width="16" height="16" viewBox="0 0 16 16" fill="none" xmlns="http://www.w3.org/2000/svg">
<g id="star">
<path id="Icon (Stroke)" fill-rule="evenodd" clip-rule="evenodd" d="M7.99989 0.893341C8.34151 0.893341 8.65352 1.08728 8.80473 1.39361L10.445 4.71672L14.1134 5.2529C14.4513 5.3023 14.732 5.53926 14.8373 5.86418C14.9427 6.1891 14.8545 6.54565 14.6098 6.78398L11.9562 9.36863L12.5824 13.0201C12.6402 13.3568 12.5017 13.6972 12.2253 13.898C11.9489 14.0988 11.5824 14.1252 11.28 13.9662L7.99989 12.2412L4.71975 13.9662C4.41735 14.1252 4.05089 14.0988 3.77447 13.898C3.49804 13.6972 3.3596 13.3568 3.41735 13.0201L4.04362 9.36863L1.38998 6.78398C1.14529 6.54565 1.05709 6.1891 1.16244 5.86418C1.26779 5.53926 1.54844 5.3023 1.88642 5.2529L5.55473 4.71672L7.19505 1.39361C7.34626 1.08728 7.65826 0.893341 7.99989 0.893341Z" fill="#6941C6"/>
</g>
</svg>
